<svg xmlns="http://www.w3.org/2000/svg" viewBox="0 0 1280 880" role="img" aria-labelledby="title desc">
  <title id="title">Mockup wizytówki firmy</title>
  <desc id="desc">Firmowa strona wizerunkowa z sekcją usług, statystykami i formularzem kontaktowym.</desc>
  <rect width="1280" height="880" fill="#fbfaf7"/>
  <rect x="100" y="72" width="1080" height="736" rx="30" fill="#ffffff" stroke="#ded6c7" stroke-width="3"/>
  <rect x="152" y="130" width="976" height="84" rx="18" fill="#f4efe6"/>
  <circle cx="198" cy="172" r="20" fill="#6f45ef"/>
  <rect x="242" y="158" width="172" height="22" rx="11" fill="#111015"/>
  <rect x="798" y="158" width="76" height="22" rx="11" fill="#111015" opacity=".22"/>
  <rect x="900" y="158" width="76" height="22" rx="11" fill="#111015" opacity=".22"/>
  <rect x="1002" y="152" width="86" height="34" rx="17" fill="#c7a15a"/>
  <rect x="152" y="270" width="424" height="50" rx="10" fill="#111015"/>
  <rect x="152" y="350" width="510" height="18" rx="9" fill="#6f45ef" opacity=".2"/>
  <rect x="152" y="384" width="436" height="18" rx="9" fill="#6f45ef" opacity=".13"/>
  <rect x="152" y="456" width="160" height="48" rx="8" fill="#4d2fc8"/>
  <rect x="708" y="260" width="358" height="280" rx="22" fill="#111015"/>
  <rect x="748" y="306" width="150" height="22" rx="11" fill="#ffffff" opacity=".86"/>
  <rect x="748" y="356" width="238" height="14" rx="7" fill="#ffffff" opacity=".26"/>
  <rect x="748" y="386" width="202" height="14" rx="7" fill="#ffffff" opacity=".2"/>
  <rect x="748" y="442" width="72" height="72" rx="12" fill="#c7a15a"/>
  <rect x="846" y="442" width="72" height="72" rx="12" fill="#6f45ef"/>
  <rect x="944" y="442" width="72" height="72" rx="12" fill="#ffffff" opacity=".16"/>
  <rect x="152" y="608" width="268" height="110" rx="18" fill="#fbfaf7" stroke="#e6ddcf"/>
  <rect x="456" y="608" width="268" height="110" rx="18" fill="#fbfaf7" stroke="#e6ddcf"/>
  <rect x="760" y="608" width="268" height="110" rx="18" fill="#fbfaf7" stroke="#e6ddcf"/>
  <rect x="190" y="642" width="94" height="18" rx="9" fill="#111015"/>
  <rect x="190" y="678" width="160" height="14" rx="7" fill="#6f45ef" opacity=".2"/>
  <rect x="494" y="642" width="94" height="18" rx="9" fill="#111015"/>
  <rect x="494" y="678" width="160" height="14" rx="7" fill="#6f45ef" opacity=".2"/>
  <rect x="798" y="642" width="94" height="18" rx="9" fill="#111015"/>
  <rect x="798" y="678" width="160" height="14" rx="7" fill="#6f45ef" opacity=".2"/>
</svg>
