<svg xmlns="http://www.w3.org/2000/svg" viewBox="0 0 1280 880" role="img" aria-labelledby="title desc">
  <title id="title">Mockup strony wizytówkowej premium</title>
  <desc id="desc">Jasny layout strony z fioletowym panelem i złotymi detalami.</desc>
  <rect width="1280" height="880" fill="#f8f6f1"/>
  <rect x="84" y="76" width="1112" height="728" rx="28" fill="#ffffff" stroke="#dfd8cc" stroke-width="3"/>
  <rect x="84" y="76" width="1112" height="72" rx="28" fill="#111015"/>
  <circle cx="132" cy="112" r="10" fill="#c7a15a"/>
  <circle cx="166" cy="112" r="10" fill="#6f45ef"/>
  <circle cx="200" cy="112" r="10" fill="#ffffff" opacity=".72"/>
  <rect x="260" y="105" width="190" height="14" rx="7" fill="#ffffff" opacity=".28"/>
  <rect x="862" y="100" width="82" height="22" rx="11" fill="#ffffff" opacity=".24"/>
  <rect x="966" y="100" width="82" height="22" rx="11" fill="#ffffff" opacity=".24"/>
  <rect x="1070" y="96" width="84" height="30" rx="15" fill="#c7a15a"/>
  <rect x="142" y="214" width="420" height="54" rx="10" fill="#111015"/>
  <rect x="142" y="292" width="500" height="24" rx="12" fill="#6f45ef" opacity=".22"/>
  <rect x="142" y="336" width="440" height="24" rx="12" fill="#6f45ef" opacity=".14"/>
  <rect x="142" y="398" width="160" height="48" rx="8" fill="#4d2fc8"/>
  <rect x="324" y="398" width="160" height="48" rx="8" fill="#f1e4c4" stroke="#c7a15a"/>
  <rect x="724" y="214" width="344" height="370" rx="18" fill="#6f45ef"/>
  <rect x="760" y="252" width="168" height="22" rx="11" fill="#ffffff" opacity=".92"/>
  <rect x="760" y="306" width="260" height="16" rx="8" fill="#ffffff" opacity=".38"/>
  <rect x="760" y="340" width="224" height="16" rx="8" fill="#ffffff" opacity=".28"/>
  <rect x="760" y="422" width="112" height="112" rx="16" fill="#ffffff" opacity=".9"/>
  <rect x="900" y="422" width="112" height="112" rx="16" fill="#111015" opacity=".22"/>
  <path d="M762 633h360" stroke="#c7a15a" stroke-width="4" stroke-linecap="round"/>
  <rect x="142" y="642" width="270" height="92" rx="16" fill="#fbfaf7" stroke="#e7dfd2"/>
  <rect x="444" y="642" width="270" height="92" rx="16" fill="#fbfaf7" stroke="#e7dfd2"/>
  <rect x="746" y="642" width="270" height="92" rx="16" fill="#fbfaf7" stroke="#e7dfd2"/>
</svg>
